<?xml version="1.0" encoding="UTF-8"?>
<svg xmlns="http://www.w3.org/2000/svg" xmlns:xlink="http://www.w3.org/1999/xlink" version="1.1" id="Ebene_1" x="0px" y="0px" width="277" height="277" viewBox="0 0 100 100"  fill="#003759" fill-opacity="1" xml:space="preserve"> 
  <path d="M62.5,50c0,3.45-2.794,6.25-6.25,6.25H25c-3.45,0-6.25-2.8-6.25-6.25l0,0c0-3.45,2.8-6.25,6.25-6.25h31.25 C59.706,43.75,62.5,46.55,62.5,50L62.5,50z"/> 
  <path d="M100,31.25c0,3.45-2.794,6.25-6.25,6.25H75c-3.456,0-6.25-2.8-6.25-6.25l0,0C68.75,27.8,71.544,25,75,25 h18.75C97.206,25,100,27.794,100,31.25L100,31.25z"/>
  <path d="M0,31.25c0,3.45,2.8,6.25,6.25,6.25h12.5c3.45,0,6.25-2.8,6.25-6.25l0,0C25,27.8,22.2,25,18.75,25H6.25 C2.8,25,0,27.794,0,31.25L0,31.25z"/>
  <path d="M87.5,68.75c0,3.456-2.794,6.25-6.25,6.25H62.5c-3.456,0-6.25-2.794-6.25-6.25l0,0 c0-3.456,2.794-6.25,6.25-6.25h18.75C84.706,62.5,87.5,65.294,87.5,68.75L87.5,68.75z"/>
  <path d="M62.5,87.5c0,3.456-2.794,6.25-6.25,6.25H25c-3.45,0-6.25-2.794-6.25-6.25l0,0c0-3.456,2.8-6.25,6.25-6.25 h31.25C59.706,81.25,62.5,84.044,62.5,87.5L62.5,87.5z"/>
  <path d="M62.5,15.625c0,1.725-1.4,3.125-3.125,3.125h-25c-1.725,0-3.125-1.4-3.125-3.125l0,0 c0-1.731,1.4-3.125,3.125-3.125h25C61.1,12.5,62.5,13.894,62.5,15.625L62.5,15.625z"/>
  <path d="M93.75,9.375c0,1.725-1.4,3.125-3.125,3.125h-18.75c-1.725,0-3.125-1.4-3.125-3.125l0,0 c0-1.731,1.4-3.125,3.125-3.125h18.75C92.35,6.25,93.75,7.644,93.75,9.375L93.75,9.375z"/>
  <path d="M100,46.875C100,48.6,98.6,50,96.875,50h-18.75C76.4,50,75,48.6,75,46.875l0,0 c0-1.725,1.4-3.125,3.125-3.125h18.75C98.6,43.75,100,45.15,100,46.875L100,46.875z"/> 
  <path d="M25,9.375c0,1.725-1.394,3.125-3.125,3.125h-12.5c-1.725,0-3.125-1.4-3.125-3.125l0,0 c0-1.731,1.4-3.125,3.125-3.125h12.5C23.606,6.25,25,7.644,25,9.375L25,9.375z"/> 
  <path d="M43.75,65.625c0,1.725-1.394,3.125-3.125,3.125H9.375c-1.725,0-3.125-1.4-3.125-3.125l0,0 c0-1.725,1.4-3.125,3.125-3.125h31.25C42.356,62.5,43.75,63.9,43.75,65.625L43.75,65.625z"/> 
  <path d="M56.25,34.375c0,1.725-1.4,3.125-3.125,3.125h-18.75c-1.725,0-3.125-1.4-3.125-3.125l0,0 c0-1.731,1.4-3.125,3.125-3.125h18.75C54.85,31.25,56.25,32.644,56.25,34.375L56.25,34.375z"/> 
</svg>